<svg width="109" height="30" viewBox="0 0 109 30" fill="none" xmlns="http://www.w3.org/2000/svg">
<path d="M0.914062 0.71875H10.1719L16.8906 17.1641H17.2422L23.9609 0.71875H33.2188V29H25.9531V12.3594H25.7188L19.2734 28.8047H14.8203L8.41406 12.2422H8.17969V29H0.914062V0.71875ZM35.4469 29V0.71875H42.8688V11.8516H53.2984V0.71875H60.7594V29H53.2984V17.8672H42.8688V29H35.4469ZM76.7375 19.7422V7.78906H84.1203V29H77.1281V24.9766H76.8937C75.9562 27.6719 73.5344 29.2734 70.3703 29.2734C65.9562 29.2734 63.0266 25.9922 63.0266 21.3047V7.78906H70.4094V19.7812C70.4094 21.9297 71.5422 23.2578 73.5344 23.2578C75.4484 23.2578 76.7766 21.9688 76.7375 19.7422ZM86.4266 29V0.71875H93.8094V11.4609H93.9266C94.7469 9.35156 96.7 7.51562 99.9031 7.51562C104.161 7.51562 108.223 10.7578 108.223 18.4141C108.223 25.7188 104.395 29.2734 99.825 29.2734C96.7781 29.2734 94.7859 27.6328 93.9266 25.5234H93.7312V29H86.4266ZM93.6141 18.375C93.6141 21.5781 94.9422 23.6094 97.1687 23.6094C99.3562 23.6094 100.606 21.6172 100.606 18.375C100.606 15.1719 99.3562 13.2188 97.1687 13.2188C94.9422 13.2188 93.6141 15.1719 93.6141 18.375Z" fill="#FF9500"/>
</svg>
